PathFileType	4	(X/Y/Z)	 control3min.trc
DataRate	CameraRate	NumFrames	NumMarkers	Units	OrigDataRate	OrigDataStartFrame	OrigNumFrames
200	200	11	35	m	200	251	1000
Frame#	Time	C7			LSH			RSH			MAN			RASI			LASI			HIPR			HIPL			RPSI			LPSI			COX			RTHI1			RTHI2			RTHI3			RTHI4			RSHA1			RSHA2			RSHA3			RSHA4			RHEEL			RMET5			RMET1			RTOE			LTHI1			LTHI2			LTHI3			LTHI4			LSHA1			LSHA2			LSHA3			LSHA4			LHEEL			LMET5			LMET1			LTOE			
		X1	Y1	Z1	X2	Y2	Z2	X3	Y3	Z3	X4	Y4	Z4	X5	Y5	Z5	X6	Y6	Z6	X7	Y7	Z7	X8	Y8	Z8	X9	Y9	Z9	X10	Y10	Z10	X11	Y11	Z11	X12	Y12	Z12	X13	Y13	Z13	X14	Y14	Z14	X15	Y15	Z15	X16	Y16	Z16	X17	Y17	Z17	X18	Y18	Z18	X19	Y19	Z19	X20	Y20	Z20	X21	Y21	Z21	X22	Y22	Z22	X23	Y23	Z23	X24	Y24	Z24	X25	Y25	Z25	X26	Y26	Z26	X27	Y27	Z27	X28	Y28	Z28	X29	Y29	Z29	X30	Y30	Z30	X31	Y31	Z31	X32	Y32	Z32	X33	Y33	Z33	X34	Y34	Z34	X35	Y35	Z35	
251	1.2550	-0.332423	1.351653	-0.513467	-0.287173	1.330395	-0.700616	-0.239020	1.306350	-0.346792	-0.204470	1.292432	-0.532070	-0.178504	0.901409	-0.420908	-0.212816	0.903763	-0.637874	-0.241557	0.941958	-0.373053	-0.272605	0.951070	-0.663421	-0.353619	0.935894	-0.448873	-0.367820	0.936746	-0.552729	-0.361011	0.945556	-0.503853	-0.276243	0.698983	-0.357756	-0.250543	0.645001	-0.358204	-0.191132	0.667951	-0.347428	-0.209291	0.726973	-0.344678	-0.272929	0.318368	-0.343677	-0.292414	0.281023	-0.350255	-0.236073	0.260615	-0.360208	-0.221255	0.298229	-0.357948	-0.418410	0.074143	-0.394340	-0.271824	0.024380	-0.338116	-0.233507	0.035399	-0.418139	-0.207630	0.027250	-0.421824	-0.294966	0.677169	-0.693886	-0.260166	0.626578	-0.699225	-0.203535	0.659039	-0.703279	-0.231635	0.711760	-0.699077	-0.338319	0.299275	-0.699156	-0.359779	0.265224	-0.695193	-0.303582	0.237427	-0.699023	-0.288535	0.278700	-0.703026	-0.468451	0.068702	-0.641779	-0.333258	0.029438	-0.725142	-0.284236	0.036866	-0.660966	-0.259704	0.027925	-0.666121	
252	1.2600	-0.333100	1.355728	-0.513528	-0.287027	1.335423	-0.700456	-0.239856	1.311233	-0.346821	-0.204838	1.297084	-0.531997	-0.177573	0.905743	-0.421105	-0.211904	0.908222	-0.637978	-0.240535	0.946284	-0.373196	-0.271764	0.955332	-0.663445	-0.352585	0.940186	-0.448903	-0.366875	0.940912	-0.552827	-0.360099	0.949705	-0.503895	-0.276221	0.703462	-0.357562	-0.250921	0.649286	-0.358061	-0.191300	0.671824	-0.347544	-0.209030	0.730971	-0.344774	-0.274266	0.321339	-0.343290	-0.293484	0.283922	-0.349926	-0.236975	0.263908	-0.359784	-0.222433	0.301625	-0.357522	-0.417662	0.076589	-0.393677	-0.271633	0.024540	-0.338225	-0.233447	0.035379	-0.418158	-0.207707	0.027246	-0.421901	-0.294340	0.681901	-0.694386	-0.259909	0.631035	-0.699580	-0.202993	0.663044	-0.703159	-0.230685	0.715986	-0.699048	-0.339917	0.302381	-0.699074	-0.361019	0.268050	-0.695105	-0.304588	0.240800	-0.699369	-0.289932	0.282196	-0.703244	-0.467571	0.071515	-0.642017	-0.332990	0.029708	-0.724872	-0.284062	0.036818	-0.660923	-0.259686	0.027901	-0.666051	
253	1.2650	-0.333806	1.360098	-0.513633	-0.286900	1.340705	-0.700255	-0.240802	1.316439	-0.346836	-0.205217	1.302046	-0.531916	-0.176653	0.910402	-0.421270	-0.210927	0.912899	-0.638079	-0.239664	0.950961	-0.373360	-0.270820	0.959911	-0.663552	-0.351553	0.944770	-0.449077	-0.365870	0.945402	-0.553054	-0.359176	0.954137	-0.504060	-0.276224	0.708242	-0.357295	-0.251353	0.653863	-0.357807	-0.191512	0.675961	-0.347594	-0.208782	0.735243	-0.344836	-0.275692	0.324676	-0.342825	-0.294659	0.287135	-0.349505	-0.237933	0.267504	-0.359167	-0.223681	0.305337	-0.356909	-0.416773	0.079258	-0.392966	-0.271406	0.024734	-0.338322	-0.233383	0.035367	-0.418162	-0.207792	0.027245	-0.421975	-0.293926	0.686880	-0.694835	-0.259903	0.635729	-0.699904	-0.202698	0.667243	-0.703116	-0.229943	0.720410	-0.699087	-0.341489	0.305883	-0.699108	-0.362237	0.271267	-0.695077	-0.305603	0.244527	-0.699825	-0.291318	0.286037	-0.703589	-0.466562	0.074548	-0.642328	-0.332663	0.030024	-0.724627	-0.283880	0.036779	-0.660883	-0.259670	0.027879	-0.665978	
254	1.2700	-0.334511	1.364693	-0.513743	-0.286809	1.346193	-0.700016	-0.241840	1.321913	-0.346850	-0.205719	1.307247	-0.531808	-0.175758	0.915352	-0.421425	-0.209896	0.917765	-0.638174	-0.238899	0.955974	-0.373553	-0.269756	0.964809	-0.663705	-0.350540	0.949612	-0.449375	-0.364823	0.950172	-0.553384	-0.358246	0.958808	-0.504344	-0.276249	0.713285	-0.356957	-0.251820	0.658689	-0.357448	-0.191756	0.680344	-0.347576	-0.208550	0.739764	-0.344870	-0.277184	0.328297	-0.342295	-0.295866	0.290619	-0.348973	-0.238920	0.271375	-0.358370	-0.224970	0.309329	-0.356132	-0.415727	0.082128	-0.392204	-0.271143	0.024962	-0.338401	-0.233315	0.035362	-0.418151	-0.207884	0.027246	-0.422047	-0.293727	0.692046	-0.695247	-0.260136	0.640599	-0.700207	-0.202640	0.671595	-0.703157	-0.229415	0.724999	-0.699207	-0.342967	0.309710	-0.699239	-0.363390	0.274844	-0.695133	-0.306585	0.248561	-0.700376	-0.292639	0.290183	-0.704055	-0.465421	0.077779	-0.642718	-0.332272	0.030384	-0.724418	-0.283693	0.036749	-0.660845	-0.259658	0.027860	-0.665905	
255	1.2750	-0.335175	1.369466	-0.513808	-0.286727	1.351853	-0.699740	-0.242957	1.327606	-0.346865	-0.206268	1.312678	-0.531675	-0.174895	0.920546	-0.421582	-0.208819	0.922795	-0.638266	-0.238200	0.961276	-0.373788	-0.268563	0.970015	-0.663866	-0.349549	0.954654	-0.449778	-0.363732	0.955177	-0.553816	-0.357316	0.963691	-0.504727	-0.276292	0.718531	-0.356545	-0.252305	0.663725	-0.356982	-0.192017	0.684954	-0.347493	-0.208338	0.744505	-0.344879	-0.278701	0.332212	-0.341678	-0.297056	0.294262	-0.348352	-0.239913	0.275481	-0.357410	-0.226273	0.313551	-0.355201	-0.414530	0.085183	-0.391409	-0.270835	0.025230	-0.338459	-0.233241	0.035366	-0.418123	-0.207982	0.027250	-0.422114	-0.293725	0.697355	-0.695624	-0.260584	0.645613	-0.700503	-0.202802	0.676080	-0.703290	-0.229095	0.729724	-0.699410	-0.344322	0.313787	-0.699473	-0.364447	0.278711	-0.695282	-0.307500	0.252843	-0.701007	-0.293861	0.294563	-0.704631	-0.464149	0.081177	-0.643185	-0.331824	0.030780	-0.724253	-0.283506	0.036732	-0.660809	-0.259651	0.027847	-0.665832	
256	1.2800	-0.335867	1.374387	-0.513872	-0.286661	1.357646	-0.699427	-0.244130	1.333475	-0.346884	-0.206851	1.318299	-0.531522	-0.174072	0.925937	-0.421757	-0.207710	0.927957	-0.638358	-0.237534	0.966790	-0.374079	-0.267244	0.975500	-0.663999	-0.348576	0.959842	-0.450264	-0.362611	0.960362	-0.554323	-0.356387	0.968731	-0.505190	-0.276347	0.723944	-0.356072	-0.252792	0.668938	-0.356412	-0.192274	0.689760	-0.347358	-0.208148	0.749433	-0.344872	-0.280221	0.336319	-0.340996	-0.298226	0.298084	-0.347639	-0.240893	0.279770	-0.356305	-0.227572	0.317963	-0.354127	-0.413174	0.088389	-0.390626	-0.270483	0.025532	-0.338491	-0.233159	0.035381	-0.418080	-0.208087	0.027258	-0.422181	-0.293889	0.702781	-0.695975	-0.261207	0.650742	-0.700804	-0.203148	0.680697	-0.703535	-0.228960	0.734571	-0.699696	-0.345545	0.318021	-0.699812	-0.365396	0.282774	-0.695532	-0.308325	0.257285	-0.701702	-0.294975	0.299101	-0.705294	-0.462752	0.084703	-0.643724	-0.331325	0.031212	-0.724137	-0.283319	0.036729	-0.660778	-0.259651	0.027840	-0.665761	
257	1.2850	-0.336494	1.379389	-0.513891	-0.286619	1.363534	-0.699066	-0.245341	1.339475	-0.346914	-0.207499	1.324066	-0.531344	-0.173295	0.931466	-0.421953	-0.206586	0.933221	-0.638454	-0.236863	0.972474	-0.374455	-0.265814	0.981231	-0.664089	-0.347619	0.965128	-0.450818	-0.361469	0.965675	-0.554880	-0.355460	0.973879	-0.505713	-0.276416	0.729491	-0.355544	-0.253266	0.674294	-0.355754	-0.192522	0.694729	-0.347176	-0.207984	0.754518	-0.344850	-0.281726	0.340530	-0.340264	-0.299361	0.302036	-0.346867	-0.241839	0.284190	-0.355080	-0.228839	0.322503	-0.352936	-0.411675	0.091703	-0.389881	-0.270084	0.025864	-0.338499	-0.233071	0.035406	-0.418020	-0.208203	0.027275	-0.422245	-0.294193	0.708302	-0.696313	-0.261963	0.655978	-0.701125	-0.203643	0.685435	-0.703895	-0.228988	0.739521	-0.700063	-0.346650	0.322327	-0.700240	-0.366236	0.286929	-0.695874	-0.309046	0.261808	-0.702459	-0.295984	0.303718	-0.706032	-0.461228	0.088320	-0.644322	-0.330782	0.031670	-0.724071	-0.283132	0.036742	-0.660750	-0.259660	0.027837	-0.665691	
258	1.2900	-0.337079	1.384428	-0.513866	-0.286613	1.369479	-0.698657	-0.246548	1.345563	-0.346960	-0.208211	1.329939	-0.531145	-0.172566	0.937074	-0.422176	-0.205458	0.938542	-0.638556	-0.236162	0.978263	-0.374926	-0.264302	0.987153	-0.664128	-0.346680	0.970472	-0.451415	-0.360315	0.971065	-0.555476	-0.354531	0.979097	-0.506288	-0.276498	0.735134	-0.354980	-0.253734	0.679752	-0.355006	-0.192759	0.699826	-0.346943	-0.207850	0.759728	-0.344820	-0.283196	0.344793	-0.339496	-0.300442	0.306025	-0.346046	-0.242727	0.288706	-0.353761	-0.230065	0.327134	-0.351648	-0.410036	0.095071	-0.389230	-0.269640	0.026219	-0.338482	-0.232979	0.035434	-0.417940	-0.208327	0.027290	-0.422303	-0.294599	0.713895	-0.696640	-0.262813	0.661298	-0.701474	-0.204251	0.690274	-0.704361	-0.229149	0.744567	-0.700507	-0.347653	0.326605	-0.700734	-0.366969	0.291080	-0.696297	-0.309652	0.266351	-0.703264	-0.296894	0.308352	-0.706833	-0.459573	0.092003	-0.644963	-0.330204	0.032151	-0.724056	-0.282938	0.036767	-0.660722	-0.259675	0.027838	-0.665621	
259	1.2950	-0.337634	1.389474	-0.513811	-0.286648	1.375443	-0.698200	-0.247750	1.351706	-0.347003	-0.208932	1.335890	-0.530936	-0.171890	0.942706	-0.422426	-0.204339	0.943890	-0.638669	-0.235433	0.984088	-0.375486	-0.262737	0.993216	-0.664119	-0.345753	0.975833	-0.452042	-0.359157	0.976493	-0.556098	-0.353603	0.984347	-0.506894	-0.276591	0.740828	-0.354387	-0.254193	0.685279	-0.354173	-0.192978	0.705019	-0.346676	-0.207744	0.765026	-0.344786	-0.284603	0.349107	-0.338680	-0.301474	0.310007	-0.345193	-0.243549	0.293281	-0.352369	-0.231239	0.331819	-0.350282	-0.408266	0.098471	-0.388674	-0.269155	0.026589	-0.338447	-0.232883	0.035466	-0.417842	-0.208462	0.027309	-0.422349	-0.295083	0.719531	-0.696956	-0.263725	0.666684	-0.701856	-0.204944	0.695207	-0.704931	-0.229418	0.749688	-0.701022	-0.348572	0.330818	-0.701294	-0.367600	0.295155	-0.696787	-0.310139	0.270867	-0.704108	-0.297715	0.312953	-0.707681	-0.457788	0.095713	-0.645616	-0.329601	0.032654	-0.724090	-0.282721	0.036807	-0.660689	-0.259691	0.027846	-0.665550	
260	1.3000	-0.338178	1.394503	-0.513751	-0.286732	1.381388	-0.697696	-0.248917	1.357857	-0.347069	-0.209655	1.341870	-0.530723	-0.171269	0.948311	-0.422702	-0.203238	0.949221	-0.638788	-0.234680	0.989884	-0.376121	-0.261157	0.999359	-0.664068	-0.344839	0.981190	-0.452685	-0.358006	0.981916	-0.556719	-0.352675	0.989591	-0.507520	-0.276695	0.746540	-0.353777	-0.254641	0.690837	-0.353271	-0.193235	0.710282	-0.346321	-0.207667	0.770371	-0.344749	-0.285943	0.353407	-0.337854	-0.302450	0.314040	-0.344307	-0.244299	0.297880	-0.350923	-0.232346	0.336524	-0.348874	-0.406356	0.101864	-0.388218	-0.268635	0.026963	-0.338400	-0.232785	0.035500	-0.417726	-0.208606	0.027332	-0.422380	-0.295623	0.725196	-0.697273	-0.264678	0.672110	-0.702270	-0.205701	0.700213	-0.705598	-0.229770	0.754869	-0.701600	-0.349417	0.334936	-0.701896	-0.368129	0.299118	-0.697321	-0.310510	0.275309	-0.704982	-0.298458	0.317489	-0.708559	-0.455869	0.099428	-0.646268	-0.328977	0.033176	-0.724160	-0.282473	0.036859	-0.660648	-0.259701	0.027864	-0.665481	
261	1.3050	-0.338676	1.399470	-0.513657	-0.286865	1.387280	-0.697147	-0.250012	1.363966	-0.347191	-0.210367	1.347839	-0.530507	-0.170697	0.953844	-0.423000	-0.202161	0.954499	-0.638913	-0.233915	0.995612	-0.376810	-0.259594	1.005515	-0.663992	-0.343941	0.986525	-0.453335	-0.356863	0.987308	-0.557355	-0.351757	0.994812	-0.508161	-0.276814	0.752235	-0.353155	-0.255086	0.696396	-0.352318	-0.193559	0.715586	-0.345857	-0.207617	0.775727	-0.344708	-0.287207	0.357675	-0.337027	-0.303349	0.318058	-0.343410	-0.244968	0.302473	-0.349451	-0.233386	0.341225	-0.347457	-0.404314	0.105245	-0.387823	-0.268076	0.027346	-0.338352	-0.232682	0.035539	-0.417587	-0.208756	0.027361	-0.422381	-0.296209	0.730862	-0.697592	-0.265658	0.677563	-0.702715	-0.206508	0.705261	-0.706344	-0.230187	0.760077	-0.702232	-0.350197	0.338939	-0.702510	-0.368559	0.302952	-0.697874	-0.310767	0.279674	-0.705875	-0.299129	0.321949	-0.709454	-0.453817	0.103135	-0.646913	-0.328326	0.033719	-0.724259	-0.282189	0.036922	-0.660596	-0.259702	0.027895	-0.665418	
